# xmcd CD database file
#
# Track frame offsets:
#	150
#	9550
#	19645
#	33380
#	41782
#	50235
#	62585
#	78492
#	94260
#	105802
#	119790
#	136320
#	147845
#	159515
#	172925
#	184627
#	203467
#	217375
#	234565
#	250455
#	262802
#	285227
#	298950
#	313345
#
# Disc length: 4423 seconds
#
# Revision: 1
# Processed by: cddbd v1.4PL0 Copyright (c) Steve Scherf et al.
# Submitted via: jetAudio 5
#
DISCID=5f114518
DTITLE=Jussi and The Boys - Parhaat 1973-76
DYEAR=1989
DGENRE=R&B
TTITLE0=Tutti Frutti
TTITLE1=Kesäduuni blues
TTITLE2=Blueberry Hill
TTITLE3=Mä tahdon rokata
TTITLE4=Mona Lisa
TTITLE5=Juhlimaan (tosi rankasti)
TTITLE6=K.W.Blomqvistin ilmailuaiheinen blues
TTITLE7=Tavastia-rock
TTITLE8=Vankila-rock
TTITLE9=Buona sera signorina
TTITLE10=Murtuneen sydämen hotelli
TTITLE11=C'mon Everybody
TTITLE12=Metsämökin tonttu
TTITLE13=Kanteen Suosikin
TTITLE14=Valtatie 66
TTITLE15=Kun aika kääntyi rauhaan päin
TTITLE16=Korkataan taas
TTITLE17=Päästä pois tahtoisin
TTITLE18=You've Lost That Loving Feeling
TTITLE19=Alla palmupuiden
TTITLE20=Memphis Medley
TTITLE21=Vaahto peilaa
TTITLE22=Painu pois Leevi
TTITLE23=Mun rock and roll blues
EXTD=
EXTT0=
EXTT1=
EXTT2=
EXTT3=
EXTT4=
EXTT5=
EXTT6=
EXTT7=
EXTT8=
EXTT9=
EXTT10=
EXTT11=
EXTT12=
EXTT13=
EXTT14=
EXTT15=
EXTT16=
EXTT17=
EXTT18=
EXTT19=
EXTT20=
EXTT21=
EXTT22=
EXTT23=
PLAYORDER=
